<svg width="142" height="34" viewBox="0 0 142 34" fill="none" xmlns="http://www.w3.org/2000/svg">
<path d="M98.9244 14.1143C100.559 14.1539 102.124 14.0324 103.685 14.2411C106.002 14.5509 107.444 15.9886 107.621 18.2194C107.792 20.3814 106.524 22.1615 104.356 22.7858C104.015 22.8842 103.66 22.9374 103.371 22.9988C104.876 24.6434 106.395 26.3023 107.904 27.9506C106.651 27.9506 105.291 27.9584 103.932 27.939C103.791 27.937 103.629 27.7961 103.515 27.6823C101.386 25.5686 99.2624 23.4498 97.1409 21.3289C97.0593 21.2474 97.0091 21.1349 96.9398 21.03C97.169 20.7265 97.4811 20.8645 97.7457 20.8518C99.3534 20.7741 100.974 21.0137 102.57 20.6804C103.796 20.4246 104.449 19.4018 104.181 18.218C104.007 17.4499 103.503 17.0296 102.739 16.9063C101.111 16.6435 99.4703 16.8159 97.8359 16.7863C96.0594 16.7542 96.0576 16.7781 96.0567 18.5625C96.0552 21.385 96.0572 24.2074 96.0545 27.0299C96.0536 27.9679 96.0413 27.9769 95.0755 27.9799C94.5216 27.9816 93.9674 27.9672 93.4137 27.9792C92.9971 27.9881 92.8007 27.8329 92.8015 27.3935C92.8092 23.1598 92.8099 18.9261 92.8008 14.6925C92.7997 14.1748 93.1055 14.1171 93.5053 14.1174C95.2876 14.1189 97.0699 14.1158 98.9244 14.1143Z" fill="#14B2E6"/>
<path d="M141.356 24.0532C141.357 25.2016 141.346 26.2783 141.363 27.3547C141.37 27.8163 141.183 28.0232 140.72 27.9777C140.696 27.9754 140.672 27.9775 140.648 27.9782C138.377 28.0466 138.369 28.0539 136.843 26.379C134.742 24.0727 132.657 21.7523 130.559 19.4439C130.391 19.2595 130.267 19.0065 129.876 18.9256C129.876 19.5466 129.875 20.1349 129.876 20.7232C129.877 22.8527 129.866 24.9823 129.89 27.1116C129.897 27.7397 129.711 28.0548 129.022 27.9892C128.545 27.9437 128.056 27.9447 127.578 27.9877C126.922 28.0467 126.767 27.7606 126.769 27.1528C126.789 23.0374 126.786 18.9219 126.762 14.8066C126.759 14.2641 126.933 14.1093 127.463 14.1038C129.953 14.0779 129.93 14.0859 131.6 15.9611C133.643 18.2543 135.73 20.5088 137.799 22.7789C137.878 22.8651 137.971 22.9386 138.088 23.047C138.282 22.7836 138.206 22.517 138.206 22.2745C138.214 19.834 138.234 17.3931 138.197 14.9531C138.187 14.2706 138.432 14.0637 139.076 14.1087C139.651 14.149 140.232 14.1267 140.81 14.1134C141.246 14.1034 141.4 14.2981 141.397 14.7231C141.375 17.8092 141.368 20.8953 141.356 24.0532Z" fill="#14B2E6"/>
<path d="M42.9942 27.8709C42.5485 27.9146 42.1657 27.9708 41.7827 27.9719C38.8201 27.9805 35.8574 27.9796 32.8947 27.9772C32.6339 27.977 32.3647 28.0202 32 27.8448C32.1796 27.0085 32.5695 26.2289 32.9686 25.4641C33.1185 25.1769 33.4951 25.294 33.774 25.2944C36.2549 25.2979 38.7358 25.3097 41.2167 25.3208C41.7002 25.323 42.181 25.3065 42.6419 25.1412C43.194 24.9433 43.5154 24.5727 43.536 23.9687C43.5565 23.367 43.2877 22.9643 42.724 22.7516C42.041 22.4939 41.3252 22.4168 40.6034 22.3735C38.9238 22.2727 37.229 22.2991 35.5782 21.928C34.1199 21.6003 32.8309 20.9874 32.2528 19.4724C31.5804 17.7099 32.3365 15.8054 34.0428 14.8848C35.0664 14.3326 36.1866 14.1475 37.3183 14.1311C40.0395 14.0917 42.7617 14.1155 45.4835 14.1184C45.6924 14.1187 45.9208 14.0762 46.1502 14.3232C45.9595 15.0646 45.6508 15.8086 45.3192 16.5416C45.1665 16.8791 44.8201 16.7751 44.5466 16.7762C42.3065 16.7848 40.0664 16.7872 37.8264 16.7792C37.3393 16.7774 36.8588 16.8243 36.3996 16.9644C35.8873 17.1208 35.515 17.433 35.4731 18.0259C35.4316 18.6144 35.7228 18.9741 36.2336 19.1995C36.8382 19.4663 37.4795 19.5216 38.1327 19.5693C39.8819 19.697 41.6492 19.6101 43.3775 19.9932C46.0205 20.5791 47.3587 22.4872 46.745 24.9128C46.2721 26.782 44.8611 27.5852 42.9942 27.8709Z" fill="#16B9F2"/>
<path d="M53.1396 17.2069C52.4096 18.1104 52.5913 18.864 53.6304 19.2594C54.8476 19.7227 56.148 19.6114 57.414 19.6823C58.7411 19.7565 60.0597 19.8184 61.3217 20.2762C63.0944 20.9194 64.0306 22.2618 63.9639 24.0488C63.8978 25.8182 62.7663 27.2088 60.9929 27.6763C60.3412 27.8481 59.6807 27.9766 58.9993 27.9761C55.9629 27.9738 52.9266 27.9788 49.8903 27.9769C49.654 27.9768 49.4075 28.0205 49.076 27.828C49.3046 27.0118 49.6724 26.2234 50.0839 25.4595C50.2265 25.1949 50.5653 25.2953 50.8214 25.2957C53.3035 25.2997 55.7855 25.3107 58.2676 25.3204C58.7753 25.3224 59.2807 25.3062 59.763 25.1234C60.3097 24.9162 60.6642 24.5185 60.6661 23.9435C60.6678 23.4103 60.3795 22.9929 59.8517 22.7776C59.1736 22.501 58.4602 22.4148 57.737 22.3734C56.1042 22.28 54.4656 22.2589 52.8519 21.9407C50.7606 21.5282 49.405 20.2044 49.2867 18.4381C49.1692 16.6831 50.1921 15.1969 51.9304 14.592C52.8252 14.2806 53.7511 14.1276 54.6936 14.1225C57.3202 14.1083 59.947 14.1159 62.5736 14.1202C62.8067 14.1206 63.0595 14.063 63.3239 14.3139C63.143 15.0609 62.8021 15.7923 62.4848 16.5285C62.3405 16.8632 61.9955 16.7784 61.7167 16.7791C59.4756 16.7844 57.2345 16.7764 54.9934 16.787C54.3678 16.7899 53.7391 16.8259 53.1396 17.2069Z" fill="#16B9F2"/>
<path d="M115.561 25.3217C118.041 25.3212 120.451 25.3353 122.86 25.3096C123.451 25.3033 123.678 25.4956 123.671 26.0889C123.647 28.4142 123.842 27.9544 121.817 27.971C118.468 27.9984 115.119 27.9617 111.771 27.9916C111.072 27.9978 110.865 27.7715 110.87 27.0873C110.896 23.0441 110.891 19.0006 110.87 14.9573C110.867 14.3574 111.016 14.1022 111.674 14.106C115.48 14.1282 119.287 14.113 123.093 14.1144C123.303 14.1144 123.531 14.066 123.795 14.334C123.512 15.0507 123.228 15.8263 122.896 16.5809C122.768 16.8735 122.431 16.7774 122.177 16.7779C119.744 16.7831 117.31 16.7994 114.877 16.769C114.227 16.7609 113.936 16.9391 114.006 17.6192C114.052 18.0691 114.047 18.5305 114.005 18.9813C113.951 19.5715 114.212 19.7129 114.762 19.7072C117.002 19.684 119.243 19.723 121.483 19.6836C122.195 19.671 122.386 19.9193 122.377 20.5936C122.349 22.5247 122.491 22.2178 120.704 22.2319C118.801 22.2468 116.898 22.2329 114.994 22.2334C114.018 22.2336 114.017 22.2352 114.015 23.2388C114.014 23.5976 114.013 23.9565 114.014 24.3154C114.016 25.3225 114.016 25.3224 115.056 25.3217C115.201 25.3215 115.345 25.3216 115.561 25.3217Z" fill="#14B2E6"/>
<path d="M77.7323 25.4119C76.4566 23.0022 75.2058 20.6395 73.9386 18.2456C73.5388 18.4553 73.4398 18.7893 73.2912 19.0722C71.8659 21.7851 70.4307 24.4932 69.044 27.2256C68.7495 27.8059 68.4014 28.0288 67.7593 27.9893C66.9259 27.9381 66.0869 27.9768 65.3114 27.9768C65.0947 27.6585 65.2458 27.4712 65.3415 27.2895C67.5288 23.1371 69.7293 18.9916 71.8994 14.8304C72.1861 14.2808 72.5681 14.1788 73.1439 14.0904C74.8458 13.829 75.7353 14.4838 76.4821 16.0464C78.2044 19.6502 80.1787 23.1351 82.0393 26.6741C82.2339 27.0442 82.5241 27.3943 82.469 27.9601C81.416 27.9601 80.3666 27.9655 79.3173 27.9565C79.0323 27.9541 78.9209 27.7164 78.81 27.5024C78.4575 26.822 78.108 26.1402 77.7323 25.4119Z" fill="white"/>
<path d="M85.7274 16.0127C85.729 14.1189 85.729 14.1115 87.5523 14.1188C89.32 14.1259 89.1301 13.9002 89.133 15.6815C89.1392 19.4817 89.1198 23.2821 89.1444 27.0822C89.1488 27.7536 88.9667 28.0507 88.2526 27.9875C87.6795 27.9369 87.0965 27.9493 86.5212 27.9853C85.9234 28.0228 85.7148 27.7863 85.722 27.198C85.745 25.3102 85.7284 23.4218 85.7278 21.5336C85.7272 19.7171 85.7275 17.9007 85.7274 16.0127Z" fill="white"/>
<path d="M26.7116 25.1361C26.7236 25.0571 26.7438 24.9712 26.7711 24.8877C27.6514 22.1959 27.9943 19.4501 27.432 16.6541C26.6279 12.6552 24.4557 9.58975 20.891 7.5926C17.9107 5.92282 14.7274 5.59883 11.4545 6.57322C7.96767 7.61129 5.31969 9.74098 3.59482 12.955C2.24096 15.4778 1.81566 18.1912 2.10888 21.0269C2.21944 22.096 2.43925 23.1425 2.76575 24.1667C2.77626 24.1997 2.77059 24.2378 2.75936 24.2776C2.23613 23.3177 1.80298 22.3206 1.46274 21.2838C1.40144 21.097 1.34502 20.9085 1.27936 20.6996C1.26536 20.6582 1.25834 20.6381 1.2498 20.604C1.2283 20.528 1.2083 20.4659 1.18954 20.391C1.17746 20.3376 1.16414 20.2969 1.1515 20.2421C1.10399 20.0524 1.05581 19.877 1.00896 19.6879C0.99548 19.6217 0.980667 19.5692 0.966818 19.5027C0.943849 19.3994 0.919915 19.3102 0.897512 19.2069C0.874744 19.1037 0.850445 19.0145 0.827784 18.9101C0.784585 18.6712 0.739748 18.4474 0.694645 18.2075C0.601529 17.6213 0.48593 17.0538 0.420784 16.4805C0.302138 15.4364 0.213428 14.389 0.11466 13.3271C0.103688 13.1494 0.0902845 12.9876 0.0800272 12.8111C0.0623133 12.3875 0.041453 11.9784 0.0254945 11.5547C0.0208318 11.2538 0.0112672 10.9677 0.00488405 10.6654C0.00496641 10.5613 0.00186734 10.4734 0.00178723 10.3709C0.00219281 10.3169 -0.0004206 10.2774 0.000518048 10.2216C0.00164508 10.0332 -0.000781039 9.8612 0.000271543 9.67178C0.00376322 9.30224 0.00377676 8.95008 0.00745176 8.58505C0.0312555 8.28038 0.0513961 7.98858 0.0763974 7.68377C0.166401 7.0903 0.421354 6.58744 0.79492 6.12838C0.910408 6.01593 1.01473 5.90878 1.13095 5.79776C1.32098 5.65222 1.49909 5.51056 1.69106 5.36594C2.15694 5.19458 2.60688 5.02032 3.06154 4.85937C3.54579 4.68795 4.03449 4.52914 4.53178 4.36557C4.56177 4.35888 4.58121 4.35144 4.6147 4.34171C4.69954 4.31354 4.77034 4.28767 4.85445 4.26096C5.05973 4.19318 5.25167 4.12624 5.45546 4.06007C5.51093 4.04374 5.55457 4.02663 5.61251 4.00698C5.94815 3.89005 6.26948 3.77566 6.59082 3.66127C7.13811 3.45935 7.68944 3.26765 8.23196 3.05364C9.99247 2.35917 11.6921 1.53955 13.3151 0.563072C13.536 0.430193 13.776 0.329288 14.0259 0.205039C14.0488 0.191958 14.053 0.187416 14.0681 0.183304C14.0975 0.173353 14.1159 0.162973 14.1477 0.152615C14.2076 0.1284 14.2519 0.0903048 14.3012 0.0820957C14.7365 0.00960542 15.1727 -0.0575462 15.6211 0.0787338C15.6846 0.100122 15.7368 0.113937 15.7891 0.127753C16.6446 0.587542 17.4974 1.05238 18.3563 1.50596C19.7058 2.21871 21.1099 2.80974 22.5539 3.36322C22.5813 3.369 22.5876 3.3693 22.6029 3.3792C22.9138 3.49383 23.2157 3.59884 23.5176 3.70386C23.5464 3.71628 23.5753 3.72871 23.6235 3.75011C23.6708 3.76505 23.6989 3.77102 23.727 3.77699C23.8095 3.8103 23.892 3.84361 23.999 3.88456C24.1752 3.94435 24.3269 3.9965 24.4787 4.04865C24.8275 4.16552 25.1763 4.28239 25.5489 4.4084C25.9469 4.53802 26.3211 4.65849 26.7036 4.78877C26.8673 4.83965 27.0228 4.88071 27.1874 4.93146C27.4618 5.03597 27.7271 5.13077 27.9983 5.23284C28.0223 5.24401 28.0403 5.24791 28.0662 5.2622C28.4106 5.49698 28.7471 5.72137 29.0835 5.94576C29.1159 5.98265 29.1483 6.01955 29.1957 6.07263C29.3353 6.2513 29.4598 6.4138 29.5842 6.57629C29.5922 6.59655 29.6001 6.61681 29.6169 6.6557C29.6441 6.70571 29.6625 6.73711 29.6809 6.7685C29.9251 7.2704 29.971 7.81075 29.9897 8.38903C29.9937 8.497 29.9968 8.57249 30 8.64798C29.9978 8.67592 29.9956 8.70386 29.9936 8.76111C29.9957 8.85385 29.9978 8.91727 29.9999 8.9807C29.997 9.20439 29.9942 9.42809 29.9913 9.68466C29.991 9.95256 29.9907 10.1876 29.9904 10.4226C29.9667 10.9541 29.943 11.4856 29.9182 12.0499C29.9083 12.2686 29.8995 12.4544 29.8866 12.6553C29.8831 12.722 29.8838 12.7737 29.8805 12.8409C29.8545 13.2036 29.8325 13.5507 29.807 13.9099C29.8049 13.9384 29.8065 13.9549 29.8033 13.986C29.7806 14.2253 29.7625 14.4499 29.7399 14.6902C29.7273 14.792 29.7193 14.8781 29.7058 14.978C29.6548 15.4036 29.6091 15.8156 29.5582 16.2405C29.5401 16.3676 29.5271 16.4819 29.5096 16.6105C29.4909 16.7369 29.4768 16.8491 29.4627 16.9612C29.3303 17.6741 29.1981 18.3869 29.0655 19.0997C29.0509 19.1783 29.0342 19.2566 29.0103 19.3611C28.9377 19.6645 28.8732 19.9418 28.8087 20.219C28.5863 20.8837 28.3773 21.5532 28.1385 22.2119C27.7831 23.1923 27.3202 24.1238 26.7985 25.0262C26.7772 25.0631 26.7485 25.0958 26.7116 25.1361Z" fill="#166FEC"/>
<path d="M10.8431 32.0811C10.2079 31.6266 9.56386 31.1838 8.94107 30.7129C8.59333 30.45 8.28367 30.1372 7.95201 29.8524C7.33541 29.3231 6.79446 28.7216 6.31009 28.0737C4.36459 25.4714 3.34374 22.5648 3.49119 19.2919C3.63154 16.1768 4.75985 13.4727 6.99056 11.2804C8.90877 9.39528 11.2356 8.32383 13.9178 8.05073C15.931 7.84574 17.8586 8.16317 19.6838 9.04618C21.4244 9.88823 22.7914 11.1517 23.8427 12.7675C24.8012 14.2408 25.4511 15.837 25.7699 17.5665C25.7788 17.6147 25.7801 17.6642 25.7802 17.7277C25.7755 17.7423 25.7768 17.7407 25.7768 17.7407C25.5554 17.2827 25.3578 16.8114 25.1087 16.369C23.7549 13.9643 21.7104 12.5 18.9792 12.1327C15.7313 11.6959 12.9943 12.7833 10.8258 15.226C9.43381 16.7941 8.69105 18.6698 8.51196 20.7538C8.21576 24.2006 9.32564 27.1407 11.7845 29.5658C13.1728 30.9349 14.8046 31.9129 16.6795 32.4606C17.1251 32.5907 17.5952 32.6369 18.0544 32.7198C18.1208 32.7318 18.1891 32.7329 18.2565 32.739C18.2531 32.7575 18.2497 32.776 18.238 32.8026C18.2003 32.8237 18.1709 32.8368 18.1197 32.8596C17.7606 33.0374 17.4234 33.2054 17.0725 33.3744C16.9569 33.4223 16.8548 33.4693 16.7528 33.5163C16.5992 33.5743 16.4456 33.6323 16.2689 33.7C15.848 33.845 15.452 33.9875 15.0101 33.978C14.8619 33.9458 14.7267 33.9172 14.5814 33.8792C14.3874 33.8066 14.2036 33.7434 14.006 33.6764C13.6318 33.5136 13.2713 33.3546 12.902 33.1862C12.2098 32.8116 11.5264 32.4464 10.8431 32.0811Z" fill="#166FEC"/>
<path d="M20.3899 31.1544C19.9802 31.2367 19.5845 31.3404 19.1825 31.3802C18.0688 31.4904 17.0137 31.2399 16.006 30.7808C14.6736 30.1736 13.4927 29.3507 12.5161 28.2517C12.2046 27.901 11.9254 27.5233 11.7567 27.0793C11.3421 25.9883 11.5989 25.0262 12.371 24.1982C13.4083 23.0856 15.0511 22.7762 16.4908 23.3857C17.0066 23.604 17.4674 23.9066 17.8839 24.2791C17.9609 24.3481 18.039 24.4159 18.1137 24.4818C18.3331 24.3124 18.5334 24.1386 18.7521 23.9923C19.6449 23.3947 20.6148 23.1374 21.6838 23.372C23.1959 23.7039 24.1885 24.9973 24.1573 26.5929C24.1379 27.5874 23.8052 28.4705 23.1903 29.2637C23.0497 29.4234 22.9128 29.5711 22.775 29.7328C22.7741 29.7469 22.7708 29.7449 22.7708 29.7449C22.652 29.8443 22.5398 29.953 22.4133 30.0414C22.0815 30.273 21.7436 30.4957 21.3878 30.7331C21.3212 30.7722 21.2749 30.8002 21.2287 30.8282C20.9528 30.9344 20.677 31.0405 20.3899 31.1544Z" fill="white"/>
<path d="M12.7643 19.935C12.9137 18.799 13.6195 18.0059 14.6393 17.8118C15.9758 17.5574 17.2343 18.5154 17.3488 19.8743C17.4833 21.4717 16.086 22.7079 14.5259 22.3717C13.4644 22.1429 12.723 21.125 12.7643 19.935Z" fill="white"/>
<path d="M19.7572 19.3015C20.3893 18.7057 21.2638 18.5766 22.023 18.9591C22.7515 19.3261 23.1722 20.1235 23.0738 20.9511C22.9778 21.7594 22.368 22.4595 21.6019 22.6413C20.7244 22.8494 19.8778 22.4931 19.4326 21.7282C18.9782 20.9474 19.1021 19.9977 19.7572 19.3015Z" fill="white"/>
</svg>
